<svg xmlns="http://www.w3.org/2000/svg" xmlns:xlink="http://www.w3.org/1999/xlink" viewBox="0 0 225.78 63.88"><defs><style>.cls-1{fill:none;}.cls-2{font-size:20.08px;font-family:Satisfy-Regular, Satisfy;}.cls-2,.cls-5{fill:#fff;}.cls-3{fill:#da1f27;stroke:#da2128;stroke-miterlimit:10;stroke-width:2px;}.cls-4{isolation:isolate;}.cls-6{clip-path:url(#clip-path);}</style><clipPath id="clip-path" transform="translate(-20.71 -1.83)"><polygon class="cls-1" points="111.19 64.97 116.9 64.97 131.55 17.11 94.73 16.44 107.96 63.83 111.19 64.97"/></clipPath></defs><g id="Layer_1" data-name="Layer 1"><text class="cls-2" transform="translate(137.73 17.56)">Realverse</text><path class="cls-3" d="M128.89,12.64v-.1a9.89,9.89,0,0,0-12.75-5.33,7.85,7.85,0,0,0-2.66,1.72,9.7,9.7,0,0,0-13.8.85A9.55,9.55,0,0,0,98,12.54l-.1.19-.57,1.43h3l.38-.76a6.9,6.9,0,0,1,11.51-1.71,1.57,1.57,0,0,1,.38.47l.86,1.24.85-1.24a2.2,2.2,0,0,1,.38-.47,6.94,6.94,0,0,1,9.8-.58,6.62,6.62,0,0,1,1.72,2.29l.38.76h3Z" transform="translate(-20.71 -1.83)"/><g class="cls-4"><path class="cls-5" d="M20.71,61V23.2h8.94V61Z" transform="translate(-20.71 -1.83)"/></g><g class="cls-4"><path class="cls-5" d="M47.06,61V23.2H56V53.45H66.85V61Z" transform="translate(-20.71 -1.83)"/><path class="cls-5" d="M69.42,50.22V33.57c0-7.52,4.09-11.23,12.18-11.23H82c3.62,0,6.47.95,8.47,2.86s3,4.75,3,8.37V50.12c0,3.91-1,6.85-3,9-1.81,1.9-4.86,2.85-9.23,2.85-4.19,0-7.23-1-8.95-3A12.64,12.64,0,0,1,69.42,50.22Zm9-17.41-.1.85V50.31a6.54,6.54,0,0,0,.86,3.43,2.62,2.62,0,0,0,2.38,1.43c2,0,3-1.72,3-5.24V32.81c0-2.38-1-3.62-2.85-3.62h-.29C79.6,29.29,78.65,30.52,78.37,32.81Z" transform="translate(-20.71 -1.83)"/><path class="cls-5" d="M135.46,61V23.2h20.26v7.51H144.3v7h11v7.51h-11v8.18h12.09V61Z" transform="translate(-20.71 -1.83)"/></g><g class="cls-4"><path class="cls-5" d="M165.14,61V23.29h12a14.09,14.09,0,0,1,8.18,2.1c2.19,1.42,3.24,3.8,3.33,7.13,0,2.38-.28,4.19-1.14,5.43a11.55,11.55,0,0,1-3.23,3.14,10.7,10.7,0,0,1,4,3.61,12.34,12.34,0,0,1,.86,5.33c0,7.33-3.81,11-11.51,11H165.14ZM174,38.14c2.38,0,3.9-.29,4.66-.86s1-1.81,1-3.52v-.19c0-1.52-.38-2.47-1.14-2.86a11.92,11.92,0,0,0-4.57-.57Zm0,16.08c.48,0,.95.09,1.43.09,1.9,0,3.23-.28,3.8-1a5.51,5.51,0,0,0,1.05-3.81v-.19c0-1.8-.48-3-1.33-3.61a9.75,9.75,0,0,0-4.95-1v9.42Z" transform="translate(-20.71 -1.83)"/><path class="cls-5" d="M193.11,23.29H202V52.12c0,2,1,3,3.24,3,1.9,0,2.85-1.14,2.85-3.33V23.29H217v27.5q0,11-11.42,11.13h-.38c-8.09,0-12.09-3.61-12.09-10.94Z" transform="translate(-20.71 -1.83)"/><path class="cls-5" d="M228.51,61V45.18l-8.95-21.89h9l4.48,12.37h.09l4.47-12.37h8.85l-9.13,21.89V61Z" transform="translate(-20.71 -1.83)"/></g><g class="cls-6"><polygon class="cls-3" points="105.8 16.61 92.67 57.05 79.54 16.61 76.59 16.61 91.44 62.37 92.58 62.37 92.67 62.47 92.77 62.37 94 62.37 108.75 16.61 105.8 16.61"/></g></g></svg>