<svg id="Layer_2" data-name="Layer 2" xmlns="http://www.w3.org/2000/svg" viewBox="0 0 437.08 117.93"><defs><style>.cls-1{fill:#c9151d;}</style></defs><path class="cls-1" d="M195.61,298.18H157.2L140,331.36h12.93L159.24,319l24,0c16-.86,17.83-16.84,17.83-16.84C201.06,298.82,195.61,298.18,195.61,298.18ZM187,306.07s-.72,4.22-3.76,5.9L163,311.83l3.58-6.89L186,305S187.23,305.14,187,306.07Z" transform="translate(-18.37 -220.16)"/><path class="cls-1" d="M188.69,331.36l13-24.91s3.92-6.86,9.35-7.93a29.65,29.65,0,0,1,6.75-.51l-7.21,14.21h22l7.37-14h11.91l-17,32.94-12,0,6.38-12.32-22.12,0-6.56,12.54Z" transform="translate(-18.37 -220.16)"/><path class="cls-1" d="M297.24,301.9c-.1-3.1-3.42-3.71-3.42-3.71H260.31a18.24,18.24,0,0,0-11.09,8.91l-8.85,17.12c-2.12,6.09,2.76,6.91,2.76,6.91h32.71c5.81-.8,9.9-6.13,9.9-6.13l10.52-19.1A7.25,7.25,0,0,0,297.24,301.9Zm-13.46,5.86-6.47,12.63s-1.53,3.28-4.67,3.46H253.41s-1.29-.42-.35-2.61l7-13.39s1.33-2.27,2.79-2.35h20.31S284.66,305.92,283.78,307.76Z" transform="translate(-18.37 -220.16)"/><path class="cls-1" d="M341.26,305.49l3.79-7.31-36.43,0a15.14,15.14,0,0,0-8.77,5.46,40,40,0,0,0-5.93,10.09l-9,17.38H328l3.78-7.26-29.69,0s-2,0-.47-3c0,0,1.62-3.42,1.69-3.42h29.52l3-6-29.34,0,2.26-4.41a3.68,3.68,0,0,1,2-1.57Z" transform="translate(-18.37 -220.16)"/><path class="cls-1" d="M329.88,331.14l17.05-33H357s2.82.06,4.12,3.68l6.22,14.66s.83,1.7,2,.07,9.57-18.41,9.57-18.41h12.34l-17.06,33h-8.77a2.55,2.55,0,0,1-2.33-1.59l-7.91-19.31s-.8-2.43-2-.1l-11,21Z" transform="translate(-18.37 -220.16)"/><path class="cls-1" d="M376.53,331.14l12.74-24.63s3.25-6.43,10.08-8.33h7.55l-17,33Z" transform="translate(-18.37 -220.16)"/><path class="cls-1" d="M409,298.18l8.34,15.55s.26.37-.09.53l-25.49,16.88h14.86l14.76-9.7,5.62,9.7,13.68-.54L432,314.51l23.42-16.84-15,.5L428,307,423,298.16Z" transform="translate(-18.37 -220.16)"/><path class="cls-1" d="M36.64,247.08l5.52.44A15.29,15.29,0,0,0,52,244.33a33,33,0,0,0,4.42-3.78,53.21,53.21,0,0,1,4.34-3.61s8.07-5.5,16.11-6.89a55.74,55.74,0,0,0-18.42,4.47,41.79,41.79,0,0,0-8.52,5.54S44.05,245,43,245.47A13,13,0,0,1,36.64,247.08Z" transform="translate(-18.37 -220.16)"/><path class="cls-1" d="M88.4,230s-22.31,5.52-33,26.42c0,0-7.92,12.35-6.09,33.79,0,0,0,11.25,9.09,26.13,0,0,10.8,17.68,29.3,21.76,0,0-24.68.45-38.66-24.84,0,0-11.69-20.19-4.42-47.5C44.65,265.75,50.93,233.66,88.4,230Z" transform="translate(-18.37 -220.16)"/><path class="cls-1" d="M101.1,230s-22.31,5.52-33,26.42c0,0-7.92,12.35-6.09,33.79,0,0,0,11.25,9.09,26.13,0,0,10.79,17.68,29.3,21.76,0,0-24.68.45-38.66-24.84,0,0-11.69-20.19-4.42-47.5C57.35,265.75,63.63,233.66,101.1,230Z" transform="translate(-18.37 -220.16)"/><path class="cls-1" d="M30.18,297s16.69,15.79,40,13.49c0,0,14.67,0,31.73-13.13,0,0,9.47-6.07,17.08-21.76,0,0,9.05-18.63,2.5-36.41,0,0,13.7,20.53,0,46,0,0-10.69,20.75-37.6,29.37C83.9,314.54,53.51,326.59,30.18,297Z" transform="translate(-18.37 -220.16)"/><path class="cls-1" d="M24.09,287.06s16.69,15.8,40,13.49c0,0,14.67,0,31.72-13.13,0,0,9.48-6.07,17.09-21.76,0,0,9-18.63,2.49-36.41,0,0,13.71,20.53,0,45.95,0,0-10.69,20.75-37.6,29.37C77.81,304.57,47.41,316.62,24.09,287.06Z" transform="translate(-18.37 -220.16)"/><path class="cls-1" d="M18.37,278s16.7,15.8,40,13.49c0,0,14.67,0,31.73-13.13,0,0,9.47-6.07,17.08-21.76,0,0,9-18.63,2.5-36.41,0,0,13.7,20.53,0,46,0,0-10.69,20.75-37.6,29.37C72.09,295.48,41.7,307.53,18.37,278Z" transform="translate(-18.37 -220.16)"/></svg>